P1
9 5
001101100
010101010
100101001
010101010
001101100
