P1
15 14
011111000000000
100001000000000
000001000000000
100010000000000
001000010000000
000001000100000
000000000010000
000001000010000
000000111110000
000000000000000
000000000001100
000000000001000
000000000000111
000000000000001
