P1
25 12
1100000000000000000000000
1100000000000000000000000
0000000000000000000000011
0000000000000000000000010
0000000000000001110001010
0000000000000010001001100
0011000000000100000100000
0101000000000100000100000
0100000000000100000100000
1100000000000010001000000
0000000000000001110000011
0000000000000000000000011
