P1
59 59
00000000000011011000000000011011000000000011011000000000000
00000000000101010100000000101010100000000101010100000000000
00000000000110001100000000110001100000000110001100000000000
00000000000000000000000000000000000000000000000000000000000
00000000000110001100000000110001100000000110001100000000000
00000000000100000100000000100000100000000100000100000000000
00000000000100000100000000100000100000000100000100000000000
00000000000100000100000000100000100000000100000100000000000
00000000000100000100000000100000100000000100000100000000000
00000000000110001100000000110001100000000110001100000000000
00000000000000000000000000000000000000000000000000000000000
01101111110011011001111110011011001111110011011001111110110
10101000010101010101000010101010101000010101010101000010101
11000000000110001100000000110001100000000110001100000000011
00000000000000000000000000000000000000000000000000000000000
11000000000110001100000000110001100000000110001100000000011
10101000010101010101000010101010101000010101010101000010101
01101111110011011001111110011011001111110011011001111110110
00000000000000000000000000000000000000000000000000000000000
00000000000110001100000000110001100000000110001100000000000
00000000000100000100000000100000100000000100000100000000000
00000000000100000100000000100000100000000100000100000000000
00000000000100000100000000100000100000000100000100000000000
00000000000100000100000000100000100000000100000100000000000
00000000000110001100000000110001100000000110001100000000000
00000000000000000000000000000000000000000000000000000000000
01101111110011011001111110011011001111110011011001111110110
10101000010101010101000010101010101000010101010101000010101
11000000000110001100000000110001100000000110001100000000011
00000000000000000000000000000000000000000000000000000000000
11000000000110001100000000110001100000000110001100000000011
10101000010101010101000010101010101000010101010101000010101
01101111110011011001111110011011001111110011011001111110110
00000000000000000000000000000000000000000000000000000000000
00000000000110001100000000110001100000000110001100000000000
00000000000100000100000000100000100000000100000100000000000
00000000000100000100000000100000100000000100000100000000000
00000000000100000100000000100000100000000100000100000000000
00000000000100000100000000100000100000000100000100000000000
00000000000110001100000000110001100000000110001100000000000
00000000000000000000000000000000000000000000000000000000000
01101111110011011001111110011011001111110011011001111110110
10101000010101010101000010101010101000010101010101000010101
11000000000110001100000000110001100000000110001100000000011
00000000000000000000000000000000000000000000000000000000000
11000000000110001100000000110001100000000110001100000000011
10101000010101010101000010101010101000010101010101000010101
01101111110011011001111110011011001111110011011001111110110
00000000000000000000000000000000000000000000000000000000000
00000000000110001100000000110001100000000110001100000000000
00000000000100000100000000100000100000000100000100000000000
00000000000100000100000000100000100000000100000100000000000
00000000000100000100000000100000100000000100000100000000000
00000000000100000100000000100000100000000100000100000000000
00000000000110001100000000110001100000000110001100000000000
00000000000000000000000000000000000000000000000000000000000
00000000000110001100000000110001100000000110001100000000000
00000000000101010100000000101010100000000101010100000000000
00000000000011011000000000011011000000000011011000000000000
