P1
3 4
110
010
010
011
