P1
4 3
0100
1110
1011
