P1
18 18
000010010000000000
000011101000000000
000110000000000000
001011000100000000
111100011010000000
010100011110000000
010000000100000000
100011000010110000
010011000000101000
000101100000000010
000011010000010010
000000000000000110
000000011000000001
000000010010000101
000000001000000011
000000000001010000
000000000111001000
000000000000111000
