P1
30 19
000000000000000001111110000000
000000000000000010000010000000
000000000000000000000010000000
000000000000000010000100000000
000000000000000000110000010010
000000000000000000000000000001
000000000000000001000000010001
010000000000000111000100001111
101000000000000110000011000000
001001110000010000001110000000
101000000000000110000011000000
010000000000000111000100001111
000000000000000001000000010001
000000000000000000000000000001
000000000000000000110000010010
000000000000000010000100000000
000000000000000000000010000000
000000000000000010000010000000
000000000000000001111110000000
