P1
9 9
000001111
000010001
000000001
110010010
111000000
110010010
000000001
000010001
000001111
