P1
30 17
000000000000000000100000000000
000000000000000000010000000000
000000000000000100010000000000
000000000000000011110000001100
000000000000000000000000011110
000000000000000000000000011011
000000000000000011101100000110
111000010000000110000010000000
101000010000001000000011000000
111000010000000110000010000000
000000000000000011101100000110
000000000000000000000000011011
000000000000000000000000011110
000000000000000011110000001100
000000000000000100010000000000
000000000000000000010000000000
000000000000000000100000000000
