P1
13 17
0111100000000
1000100000000
0000100000000
0001000000000
0000000001111
0000000010001
0000000000001
0000110010010
0000111000000
0000110010010
0000000000001
0000000010001
0000000001111
0001000000000
0000100000000
1000100000000
0111100000000
