P1
6 6
010010
011110
100001
101101
100001
011110
