P1
17 8
00000000001000000
00000000001000000
00001000101010000
00001000101010000
00101010101010100
00101010101010100
10101010101010101
10101010101010101
