P1
2 4
10
11
11
01
