P1
12 12
000011000000
000011000000
000000000000
000011110000
110100101000
110101001000
000101001011
000100001011
000011110000
000000000000
000000110000
000000110000
