P1
15 15
111001010100111
101001010100001
101001111100111
000000000000000
000000000000000
111000000000111
001000000000100
111000000000111
001000000000100
111000000000111
000000000000000
000000000000000
111001111100101
100001010100101
111001010100111
