P1
17 17
11110010101001111
10010010101000001
10010010101000001
10010011111001111
00000000000000000
00000000000000000
11110000000001111
00010000000001000
11110000000001111
00010000000001000
11110000000001111
00000000000000000
00000000000000000
11110011111001001
10000010101001001
10000010101001001
11110010101001111
