P1
19 19
1111100101010011111
1000100101010000001
1000100101010000001
1000100101010000001
1000100111110011111
0000000000000000000
0000000000000000000
1111100000000011111
0000100000000010000
1111100000000011111
0000100000000010000
1111100000000011111
0000000000000000000
0000000000000000000
1111100111110010001
1000000101010010001
1000000101010010001
1000000101010010001
1111100101010011111
