P1
82 7
1100000001100110011001100110011001100110011001100110011001100110011001100110010000
1100001011100110011001100110011001100110011001100110011001100110011001100110011100
0000110100000000000000000000000000000000000000000000000000000000000000000000000010
0000110011111111111111111111111111111111111111111111111111111111111111111111111101
0000110100000000000000000000000000000000000000000000000000000000000000000000000010
1100001011100110011001100110011001100110011001100110011001100110011001100110011100
1100000001100110011001100110011001100110011001100110011001100110011001100110010000
