P1
8 8
00111100
00100100
11100111
10000001
10000001
11100111
00100100
00111100
