P1
8 9
00000001
00000111
00001000
00001100
00000000
00110000
00010000
11100000
10000000
