P1
6 6
111000
111000
111000
000111
000111
000111
