P1
4 4
0100
0101
1010
0010
