P1
33 9
111111111111111111111111111111111
110101110111011010101010101010101
101011101110111101110101010101010
111110111011101111011111111111111
101011011101110101110101010101010
111101110111011111011010101010101
011011101110111010101111111111111
110110111011101101111010101010101
111111111111111111011111111111111
