P1
8 8
00010000
00010100
01000000
00000011
11000000
00000010
00101000
00001000
