P1
2 5
11
10
11
10
10
