P1
5 5
11111
00010
00100
01000
11111
