P1
34 34
1100000000000000111000000000000000
1100000000000010001000000000000000
0000000000000100001000000000000000
0000000000000100010000000000000000
0000000000000000000000000000000000
0000000000000100010000000000000110
0000000000000100001000000000000110
1100000000000010001000000000000000
1100000000000000111000000000000000
0000000000000000000000000000000000
0000000000000000000000000000000000
0000000000000000000000000000000000
0000000000000000000000000000000000
0000000000000000000000000000000000
0000000000000000000000000100000100
0000000000000000000000001110001110
0000000000000000000000011010001011
0000000000000000000000000000000000
0000000000000000000000000000000000
0000000000000000000000000010001000
0000000000000000000000000010001000
0000000000000000000000000000000000
0000000000000000000000000000000000
0000000000000000000000000000000000
0000000000000000000000000000000000
0000000000000000000000000000000000
0000000000000000000000000000000000
0000000000000000000000000000000000
0000000000000000000000000000000000
0000000000000000000000000000000000
0000000000000000000000000000000000
0000000000000000000000000000000000
0000000000000000000000001100000110
0000000000000000000000001100000110
