P1
2 7
11
10
11
10
11
11
10
