P1
3 3
001
101
011
