P1
9 9
000011111
000000000
000010000
000010000
000010000
000010000
000010000
000000000
111110000
