P1
9 3
100000000
111111111
000100000
