P1
78 78
010000100001000010000100001000010000100001000010000100001000010000100001000010
110001100011000110001100011000110001100011000110001100011000110001100011000110
101001010010100101001010010100101001010010100101001010010100101001010010100101
000000000000000000000000000000000000000000000000000000000000000000000000000000
000000000000000000000000000000000000000000000000000000000000000000000000000000
010000100001000010000100001000010000100001000010000100001000010000100001000010
110001100011000110001100011000110001100011000110001100011000110001100011000110
101001010010100101001010010100101001010010100101001010010100101001010010100101
000000000000000000000000000000000000000000000000000000000000000000000000000000
000000000000000000000000000000000000000000000000000000000000000000000000000000
010000100001000010000100001000010000100001000010000100001000010000100001000010
110001100011000110001100011000110001100011000110001100011000110001100011000110
101001010010100101001010010100101001010010100101001010010100101001010010100101
000000000000000000000000000000000000000000000000000000000000000000000000000000
000000000000000000000000000000000000000000000000000000000000000000000000000000
010000100001000010000100001000010000100001000010000100001000010000100001000010
110001100011000110001100011000110001100011000110001100011000110001100011000110
101001010010100101001010010100101001010010100101001010010100101001010010100101
000000000000000000000000000000000000000000000000000000000000000000000000000000
000000000000000000000000000000000000000000000000000000000000000000000000000000
010000100001000010000100001000010000100001000010000100001000010000100001000010
110001100011000110001100011000110001100011000110001100011000110001100011000110
101001010010100101001010010100101001010010100101001010010100101001010010100101
000000000000000000000000000000000000000000000000000000000000000000000000000000
000000000000000000000000000000000000000000000000000000000000000000000000000000
010000100001000010000100001000010000100001000010000100001000010000100001000010
110001100011000110001100011000110001100011000110001100011000110001100011000110
101001010010100101001010010100101001010010100101001010010100101001010010100101
000000000000000000000000000000000000000000000000000000000000000000000000000000
000000000000000000000000000000000000000000000000000000000000000000000000000000
010000100001000010000100001000010000100001000010000100001000010000100001000010
110001100011000110001100011000110001100011000110001100011000110001100011000110
101001010010100101001010010100101001010010100101001010010100101001010010100101
000000000000000000000000000000000000000000000000000000000000000000000000000000
000000000000000000000000000000000000000000000000000000000000000000000000000000
010000100001000010000100001000010000100001000010000100001000010000100001000010
110001100011000110001100011000110001100011000110001100011000110001100011000110
101001010010100101001010010100101001010010100101001010010100101001010010100101
000000000000000000000000000000000000000000000000000000000000000000000000000000
000000000000000000000000000000000000000000000000000000000000000000000000000000
010000100001000010000100001000010000100001000010000100001000010000100001000010
110001100011000110001100011000110001100011000110001100011000110001100011000110
101001010010100101001010010100101001010010100101001010010100101001010010100101
000000000000000000000000000000000000000000000000000000000000000000000000000000
000000000000000000000000000000000000000000000000000000000000000000000000000000
010000100001000010000100001000010000100001000010000100001000010000100001000010
110001100011000110001100011000110001100011000110001100011000110001100011000110
101001010010100101001010010100101001010010100101001010010100101001010010100101
000000000000000000000000000000000000000000000000000000000000000000000000000000
000000000000000000000000000000000000000000000000000000000000000000000000000000
010000100001000010000100001000010000100001000010000100001000010000100001000010
110001100011000110001100011000110001100011000110001100011000110001100011000110
101001010010100101001010010100101001010010100101001010010100101001010010100101
000000000000000000000000000000000000000000000000000000000000000000000000000000
000000000000000000000000000000000000000000000000000000000000000000000000000000
010000100001000010000100001000010000100001000010000100001000010000100001000010
110001100011000110001100011000110001100011000110001100011000110001100011000110
101001010010100101001010010100101001010010100101001010010100101001010010100101
000000000000000000000000000000000000000000000000000000000000000000000000000000
000000000000000000000000000000000000000000000000000000000000000000000000000000
010000100001000010000100001000010000100001000010000100001000010000100001000010
110001100011000110001100011000110001100011000110001100011000110001100011000110
101001010010100101001010010100101001010010100101001010010100101001010010100101
000000000000000000000000000000000000000000000000000000000000000000000000000000
000000000000000000000000000000000000000000000000000000000000000000000000000000
010000100001000010000100001000010000100001000010000100001000010000100001000010
110001100011000110001100011000110001100011000110001100011000110001100011000110
101001010010100101001010010100101001010010100101001010010100101001010010100101
000000000000000000000000000000000000000000000000000000000000000000000000000000
000000000000000000000000000000000000000000000000000000000000000000000000000000
010000100001000010000100001000010000100001000010000100001000010000100001000010
110001100011000110001100011000110001100011000110001100011000110001100011000110
101001010010100101001010010100101001010010100101001010010100101001010010100101
000000000000000000000000000000000000000000000000000000000000000000000000000000
000000000000000000000000000000000000000000000000000000000000000000000000000000
010000100001000010000100001000010000100001000010000100001000010000100001000010
110001100011000110001100011000110001100011000110001100011000110001100011000110
101001010010100101001010010100101001010010100101001010010100101001010010100101
