P1
11 9
00001111000
00000000000
00111111110
00000000000
11111111111
00000000000
00111111110
00000000000
00001111000
