P1
29 1
11111011111011111011111011111
