P1
20 20
00000000001100000000
00000000001000000000
00101101101000001100
00110101010000001000
00000000100000000100
00000000000000001100
00000000000000000000
00000000000000001100
10000000001110010100
11100000001010001000
00010000001010000111
00101000000000000001
00110000000000000000
00000000000000000000
00110000000000000000
00100000000100000000
00010000001010101100
00110000010110110100
00000000010000000000
00000000110000000000
