P1
24 26
000001101100011000000000
000010101010101000000000
000100010010101011000000
001000000011001010100000
001100000000001010100000
000010000000000100101000
111110000000000000110100
100000000000000000000100
011000000000000000000110
000100000000000000000001
011100000000000000000110
100000000000000000001000
010000000000000000000110
110000000000000000000010
000001100000000000000100
000000100000000000000110
000001000000000000000001
000001111000000000011110
000000001000000000010000
000000010000000000001000
000000001110001100011000
000000000010001010100000
000000000001101010100000
000000000000101001000000
000000000000101000000000
000000000000010000000000
