P1
3 3
111
010
100
