P1
4 7
0100
0101
0110
0000
1000
0110
1100
