P1
4 2
0111
1001
