P1
7 4
1111110
1000001
1000000
0100000
