P1
6 4
111110
100001
100000
010000
