P1
3 7
100
111
101
100
100
100
011
