P1
7 7
0000111
1100000
1010110
0000000
0010100
0100000
0110000
