P1
5 5
11000
10100
00000
00101
00011
