P1
6 7
001000
001010
100000
011111
100000
001010
001000
