P1
39 39
000000000000000001000100000000000000000
000000000000000011000110000000000000000
000000000001100010000010001100000000000
000000000001000000000000000100000000000
000000001101000000000000000101100000000
000000010101100000000000001101010000000
000000010100000000000000000001010000000
000001100100000000000000000001001100000
000010000110000000000000000011000010000
000011111000000010000010000000111110000
000000001000000111000111000000100000000
001111000000000000000000000000000111100
001001000000000000000000000000000100100
000000000000000000000000000000000000000
000000000000000011000110000000000000000
000000000010000001000100000010000000000
011000000110001000000000100011000000110
110000000010001100000001100010000000011
000000000000000000000000000000000000000
000000000000000000000000000000000000000
000000000000000000000000000000000000000
110000000010001100000001100010000000011
011000000110001000000000100011000000110
000000000010000001000100000010000000000
000000000000000011000110000000000000000
000000000000000000000000000000000000000
001001000000000000000000000000000100100
001111000000000000000000000000000111100
000000001000000111000111000000100000000
000011111000000010000010000000111110000
000010000110000000000000000011000010000
000001100100000000000000000001001100000
000000010100000000000000000001010000000
000000010101100000000000001101010000000
000000001101000000000000000101100000000
000000000001000000000000000100000000000
000000000001100010000010001100000000000
000000000000000011000110000000000000000
000000000000000001000100000000000000000
