P1
23 14
00101000000000000010100
00000100000000000100000
01001000000000000010010
10101000000000000010101
10010000000000000001001
01100001110001110000110
00000000100000100000000
00000000000000000000000
01100000000000000000110
10010000000000000001001
10100100000000000100101
01000000000000000000010
00110100000000000101100
00001000000000000010000
