P1
43 27
0000000010000000000000000000000000100000000
0000000101000000000000000000000001010000000
0000000010000000000000000000000000100000000
0000000000000100000000000000010000000000000
0000001111100111000000000001110011111000000
0000010000100000100000000010000010000100000
0000100100000001100000000011000000010010000
0100101100000000000000000000000000011010010
1010100000100000000000000000000010000010101
0100100001010000000000000000000101000010010
0000110010010000001000001000000100100110000
0000000001100000011100011100000011000000000
0000000000000000000000000000000000000000000
0000000000000000000000000000000000000000000
0000000000000000000000000000000000000000000
0000000001100000000000000000000011000000000
0000110010010000000000000000000100100110000
0100100001010000000000000000000101000010010
1010100000100000000000000000000010000010101
0100101100000000000000000000000000011010010
0000100100000000000000000000000000010010000
0000010000100011000000000001100010000100000
0000001111100001000000000001000011111000000
0000000000000101010000000101010000000000000
0000000010001010110000000110101000100000000
0000000101001010000000000000101001010000000
0000000010000110000000000000110000100000000
