P1
17 8
00000000000000010
00000000000000100
00000000010000111
00000000001100000
00000000011000000
01000000000001000
01100000000011000
10100000000010100
