P1
28 19
0000000000100000000000000000
0000000011010000000000000000
0000000011010000000000000000
0000000001100000000000000000
0000000000000000000000000000
0000001100000000000011000000
0000001100000000000011000000
0000000000000000000000000000
0000000000000000000000000000
0000000100000000000010000000
0011010001011001101000101100
0010000000001001000000000100
0001100000110000110000011000
1110011111001111001111100111
1001000000010000100000001001
0110000000001111000000000110
0000000000000000000000000000
0000000000001100000000000000
0000000000001100000000000000
