P1
11 10
00000000110
01100000101
10100110101
10101010110
01101010000
00000110000
00000000000
00000111100
00000100100
00000011000
