P1
22 7
0000000000100000000000
0000000000111100000000
1100000000011110000000
1100000000010010000011
0000000000011110000011
0000000000111100000000
0000000000100000000000
