P1
35 21
00000000000000000000011110000000000
00000000000111110000111111000000000
00000000001000010000111101100000000
00000000000000010000000011000000000
00000000001000100000000000000000000
00000000100010000000000000000000000
00000000110000000000000000000001111
00011100000000000000000000000010001
00011100000000001100000000100000001
00100001000001100000011111110010010
11100000000011100000100111011000000
00100001000001100000011111110010010
00011100000000001100000000100000001
00011100000000000000000000000010001
00000000110000000000000000000001111
00000000100010000000000000000000000
00000000001000100000000000000000000
00000000000000010000000011000000000
00000000001000010000111101100000000
00000000000111110000111111000000000
00000000000000000000011110000000000
