P1
5 3
10001
10101
10001
