P1
7 7
0010000
0101000
0000000
1100010
1000001
0001010
0011000
