P1
8 8
01100000
01100000
00000000
00000000
11100000
11010011
00110011
00110000
