P1
7 6
0110110
0110110
0010100
1010101
1010101
1100011
