P1
5 4
00110
01001
01010
11011
