P1
7 3
1000111
1110010
0100000
