P1
26 19
00000000000000011000001111
00000000000001101100010001
00000000000001111000000001
00000000000000110000010010
00000000000000000000000000
00000000000000000000100000
00000000000000010001001000
00000000000000110000000100
00000000000000011000000100
00000000000000001100001100
10100000000000000000010000
10010000000000000011000000
00000000000000000000000000
01110000000000000000000000
00000000000000000000001111
00001001000000000000010001
00000000100000000000000001
00001000100000000000010010
00000111100000000000000000
