P1
3 3
011
110
010
