P1
11 16
00000001000
00000000100
00100000100
00011111100
00000000000
00000000000
00000000000
01111111111
10000000001
00000000001
00000000010
00000000000
00000001000
00000000100
00100000100
00011111100
