P1
5 8
00011
00101
00010
00000
00000
11100
10100
10100
