P1
6 6
010010
101101
010010
010010
101101
010010
