P1
28 8
0000000000000000001000000000
0000000000000000110000000010
0000000000000000011000100100
0000101000000000000001100111
1110011000000000000001010000
0010010001100000000000000000
0100000000110000000000000000
0000000001000000000000000000
