P1
15 5
000000001100000
101000001010100
110101101011010
000101010000010
000110000000011
