P1
45 19
000000000000000000000000000000000110000001010
000000000000000001000000000000000110000011101
000000011000000011111100000000000100000110000
000000010011101000000011000000100100100010000
000000100000000001001011000100001000100100000
000001111010100001000111000110111010100010000
000001100000011100000001110000001100011100000
000010000000000000000000000000000000000110000
011101000000000000000000000000000000000000000
100100000000000000000000000000000000000000000
011101000000000000000000000000000000000000000
000010000000000000000000000000000000000000000
000001100000011100000001110000001100000000000
000001111010100001000111000110111010000000000
000000100000000001001011000100001000000000000
000000010011101000000011000000100100000000000
000000011000000011111100000000000100000000000
000000000000000001000000000000000110000000000
000000000000000000000000000000000110000000000
