P1
35 19
00000000000000000000000000000000011
00000000000000000100000000000000011
00000001100000001111110000000000010
00000001001110100000001100000010010
00000010000000000100101100010000100
00000111101010000100011100011011101
00000110000001110000000111000000110
00001000000000000000000000000000000
01110100000000000000000000000000000
10010000000000000000000000000000000
01110100000000000000000000000000000
00001000000000000000000000000000000
00000110000001110000000111000000110
00000111101010000100011100011011101
00000010000000000100101100010000100
00000001001110100000001100000010010
00000001100000001111110000000000010
00000000000000000100000000000000011
00000000000000000000000000000000011
