P1
5 4
11110
10001
10000
01001
