P1
5 7
11100
10100
10100
11001
01011
00010
11010
