P1
8 5
11000011
10100101
00100100
10100101
11000011
