P1
26 5
11000000000000000000000011
10100100100100100100100101
00100111100111100111100100
10100100100100100100100101
11000000000000000000000011
