P1
6 7
011100
000000
110010
000000
010011
000000
001110
