P1
13 13
0000001000000
0000010100000
0000101010000
0000100010000
0011001001100
0100001000010
1010110110101
0100001000010
0011001001100
0000100010000
0000101010000
0000010100000
0000001000000
