P1
10 19
0110000110
0101001010
0001001000
0001001000
1101111011
1101001011
0001001000
0001001000
1101111011
0101001010
0101001010
1101001011
0001111000
0001001000
1101001011
1101001011
0001111000
0001001000
0000110000
