P1
3 5
111
000
010
010
010
