P1
9 9
111111011
111111011
000000011
110000011
110000011
110000011
110000000
110111111
110111111
