P1
56 5
10000000000000000000000000000000000000000000000000000000
11000010000010000010000010000010000010000010000010000010
11100101000101000101000101000101000101000101000101000101
11000010000010000010000010000010000010000010000010000010
10000000000000000000000000000000000000000000000000000000
