P1
19 15
0000000001100000000
0000000001010000000
0000001101010000000
0000010101010110000
0000010101010101000
0011010101010101000
0101010101010101011
0101010101010101010
1101010101010101010
0001010101010101100
0001010101010100000
0000110101010100000
0000000101011000000
0000000101000000000
0000000011000000000
