P1
20 20
00000000000000000000
00100000000100110000
00000010000001111000
01000000000001110000
00000000000010110000
00010001000110110000
00000000000100110000
00100000101100110010
00000000011000110000
00001000010010110000
01000000111000110000
00000001100000110100
00010001101111110000
00000011000000110000
01000010000000110000
00000110000010110010
00001100000000111000
01011100001000110000
00111110000011111110
00000000000000000000
