P1
20 20
00000000100100000000
00100000000100110000
00000010001001111000
01011000000001110000
01000010000010110000
00010001000110110000
00000000100100110000
00100000101100110010
00000000011000110000
00001010010010110000
01100010111000110000
00000011100000110100
00110101101111110000
01010011000000110000
01010010001000110000
00010110011010110010
00001100001000111000
01011100101000110000
00111110000011111110
00000000000000000000
