P1
20 20
00000000000000000000
00000000000000110000
00000000000001110000
00000000000001110000
00000000000010110000
00000000000110110000
00000000000100110000
00000000001100110000
00000000011000110000
00000000010000110000
00000000110000110000
00000001100000110000
00000001111111110000
00000011000000110000
00000010000000110000
00000110000000110000
00001100000000110000
00011100000000110000
00111110000011111100
00000000000000000000
