P1
20 20
11110000000000000000
11110000000000000000
11110011111111000000
11110000110001110000
00000000110000110000
00000001110000111000
00000001100000111000
11111111111111111111
11111111111111111111
00000011000011100000
00000011111110000000
00000011000011100000
00000111000001100000
00000110000001110000
00000110000001110000
00001110000011110000
00001100000011111111
00001100001111111111
00111111111100111111
00000000000000111111
