P1
20 20
00000000000000000000
00100100000100001000
00000011011111000000
00001000110001110000
01000000111000110000
00001011110100111000
00000001100000111000
00000001100010110000
01000011100000110000
00100111000011100000
00001011111110000100
00000011000011100000
01000111001001000000
00010110000001110000
00000110001001110100
00101110000011110000
00000100010011000000
00001100011111000000
00111111111100001000
00000000000000000000
