P1
20 20
00000000000000000000
00000000000000000000
00000011111111000000
00000000110001110000
00000000110000110000
00000001110000111000
00000001100000111000
00000001100000110000
00000011100000110000
00000011000011100000
00000011111110000000
00000011000011100000
00000111000001100000
00000110000001110000
00000110000001110000
00001110000011110000
00001100000011100000
00001100001111000000
00111111111100000000
00000000000000000000
