P1
20 20
00000000000000000000
00000000000000000000
00000000001010100000
00000001010000010100
00000000100000001000
00000101000000000000
00000010000000001000
00001000000000000000
00000100000000000000
00010100000000000000
00001000000000000000
00101000000000000000
00010000000000000000
00101000000000000000
00010000000000000000
00001000000000100000
00010100000001000000
00001010000010000000
00000001010100000000
00000000000000000000
