P1
20 20
00000000000000000000
00000000000000000000
00000000001111100100
00000001110000111100
00000001100000011000
00000111000000001000
00000110000000001000
00001100000000000000
00001100000000000000
00011100000000000000
00011000000000000000
00111000000000000000
00111000000000000000
00111000000000000000
00111000000000000000
00011000000000110000
00011100000001100000
00001110000111000000
00000011111100000000
00000000000000000000
