P1
20 20
00000000000000000000
00000000000000000000
00000101010101000000
00000000100000101000
00000001000000010100
00000010100000001000
00000001000000000100
00000010000000001010
00000101000000000100
00000010000000001000
00000010000000000100
00000100000000001000
00001010000000010000
00000100000000101000
00001000000000010000
00001000000000100000
00010000000001000000
00001000001010000000
01010101010000000000
00000000000000000000
