P1
20 20
00000000000000000000
00000000000000000000
00000111111111100000
00000001100001111000
00000001100000011100
00000011100000001100
00000011000000001110
00000011000000001110
00000111000000001110
00000110000000001100
00000110000000001100
00000110000000011100
00001110000000011000
00001100000000111000
00001100000000110000
00011100000001110000
00011000000011000000
00011000001110000000
01111111111000000000
00000000000000000000
